<?xml version="1.0" encoding="utf-8"?>
<!-- Generator: Adobe Illustrator 25.4.1, SVG Export Plug-In . SVG Version: 6.00 Build 0)  -->
<svg version="1.1" id="Layer_1" xmlns="http://www.w3.org/2000/svg" xmlns:xlink="http://www.w3.org/1999/xlink" x="0px" y="0px"
	 viewBox="0 0 24 24" style="enable-background:new 0 0 24 24;" xml:space="preserve">
<style type="text/css">
	.st0{fill:none;}
	.st1{fill:#ED1C24;}
</style>
<path class="st0" d="M0,0h24v24H0V0z"/>
<path d="M19,6h-2c0-2.8-2.2-5-5-5S7,3.2,7,6H5C3.9,6,3,6.9,3,8v12c0,1.1,0.9,2,2,2h14c1.1,0,2-0.9,2-2V8C21,6.9,20.1,6,19,6z M12,3
	c1.7,0,3,1.3,3,3H9C9,4.3,10.3,3,12,3z M19,20H5V8h14V20z M12,12c-1.7,0-3-1.3-3-3H7c0,2.8,2.2,5,5,5s5-2.2,5-5h-2
	C15,10.7,13.7,12,12,12z"/>
<circle class="st1" cx="20.9" cy="3" r="2.2"/>
</svg>
